<svg xmlns="http://www.w3.org/2000/svg" viewBox="0 0 32 32" width ="24" height = "24" fill="none" stroke="black" stroke-width="2" stroke-linecap="round" stroke-linejoin="round"><g data-name="Layer 2"><path d="M16,22.73a14.41,14.41,0,0,1-4.34-.67A1,1,0,0,1,11,20.73h0a1,1,0,0,1,1.26-.57,12.38,12.38,0,0,0,7.45,0,1,1,0,0,1,1.26.57h0a1,1,0,0,1-.64,1.33A14.41,14.41,0,0,1,16,22.73Z"/><path d="M27.5,26.69H4.5A3.5,3.5,0,0,1,1,23.19V8.81a3.5,3.5,0,0,1,3.5-3.5h23A3.5,3.5,0,0,1,31,8.81V23.19A3.5,3.5,0,0,1,27.5,26.69ZM4.5,7.31A1.5,1.5,0,0,0,3,8.81V23.19a1.5,1.5,0,0,0,1.5,1.5h23a1.5,1.5,0,0,0,1.5-1.5V8.81a1.5,1.5,0,0,0-1.5-1.5Z"/><path d="M16,14.78a4.49,4.49,0,0,1-2.23-.59l-11.25-6,.94-1.76,11.28,6a2.5,2.5,0,0,0,2.48,0l11.3-6,.94,1.76-11.28,6A4.41,4.41,0,0,1,16,14.78Z"/></g></svg>